<svg xmlns="http://www.w3.org/2000/svg" xmlns:xlink="http://www.w3.org/1999/xlink" viewBox="0 0 425 88.85"><defs><style>.cls-1{fill:#fff;}.cls-2{fill:url(#linear-gradient);}.cls-3{font-size:53.9px;fill:#322d41;font-family:Poppins-Bold, Poppins;font-weight:700;}</style><linearGradient id="linear-gradient" x1="-0.36" y1="36.84" x2="63.9" y2="36.84" gradientTransform="translate(-0.02 0.17) rotate(-0.41)" gradientUnits="userSpaceOnUse"><stop offset="0" stop-color="#4e4ed6"/><stop offset="0.65" stop-color="#8258dc"/><stop offset="1" stop-color="#ad3bff"/></linearGradient></defs><title>Asset 4</title><g id="Layer_2" data-name="Layer 2"><g id="Layer_1-2" data-name="Layer 1"><path class="cls-1" d="M0,26.87V48.2L26,64.53H37l18-11,3-28s-4-7-5-8-20-7-20-7l-9,1Z"/><path class="cls-2" d="M59.09,14.64,37.31,1.48a10.23,10.23,0,0,0-10.58,0L5.35,14.38A11.08,11.08,0,0,0,0,23.87v7.79a.87.87,0,0,0,.87.87l8.36-.06a.86.86,0,0,0,.86-.87V28.39a6,6,0,0,1,3-5.24l16.63-9.6a4.91,4.91,0,0,1,4.92,0l16.9,9.82a1.76,1.76,0,0,1,0,3l-7,4a2.11,2.11,0,0,1-2.13,0l-8.11-4.78a4,4,0,0,0-4,0l-6.71,3.82a5.63,5.63,0,0,0-2.85,4.85l-.09,8.1a3.43,3.43,0,0,0,1.7,3l6.87,4a5.78,5.78,0,0,0,5.76,0l7.27-4.15a2.91,2.91,0,0,1,2.87,0l5.73,3.22a2.18,2.18,0,0,1,0,3.79L37.3,60.12a10.3,10.3,0,0,1-10.3,0L12.3,51.67A4.29,4.29,0,0,1,10.16,48l0-4.88a.86.86,0,0,0-.87-.86l-8.41.06a.87.87,0,0,0-.86.87v9.91a5.64,5.64,0,0,0,2.67,4.83L25.54,71.75a12.55,12.55,0,0,0,13,0L60.94,58.22a6.55,6.55,0,0,0,3.11-5.63V23.44A10.29,10.29,0,0,0,59.09,14.64ZM37.21,40a1.55,1.55,0,0,1-.77,1.36l-3.44,2a1.55,1.55,0,0,1-1.56,0l-3.47-2a1.54,1.54,0,0,1-.79-1.34l0-4a1.53,1.53,0,0,1,.77-1.35l3.44-2a1.58,1.58,0,0,1,1.56,0l3.47,2A1.52,1.52,0,0,1,37.18,36Z"/><text class="cls-3" transform="translate(80.18 56.19)">CreateBase</text></g></g></svg>