<svg width="1440" height="1024" viewBox="0 0 1440 1024" fill="none" xmlns="http://www.w3.org/2000/svg">
<g clip-path="url(#clip0)">
<rect width="1440" height="1024" fill="white"/>
<path opacity="0.4" d="M0 512L1440 512" stroke="#CDCDCD"/>
<path opacity="0.4" d="M0 341.016L1440 341.016" stroke="#CDCDCD"/>
<path opacity="0.4" d="M0 255.641L1440 255.641" stroke="#CDCDCD"/>
<path opacity="0.4" d="M0 85.2189L1440 85.2191" stroke="#CDCDCD"/>
<path opacity="0.4" d="M720 0L720 1024" stroke="#CDCDCD"/>
<path opacity="0.4" d="M575.599 0L575.599 1024" stroke="#CDCDCD"/>
<path opacity="0.4" d="M359.742 0L359.742 1024" stroke="#CDCDCD"/>
<path opacity="0.4" d="M287.52 0L287.52 1024" stroke="#CDCDCD"/>
<path opacity="0.4" d="M239.611 0L239.611 1024" stroke="#CDCDCD"/>
<path opacity="0.4" d="M179.627 0L179.627 1024" stroke="#CDCDCD"/>
<path opacity="0.4" d="M89.6895 0L89.6895 1024" stroke="#CDCDCD"/>
<path opacity="0.4" d="M29.8929 0L29.8929 1024" stroke="#CDCDCD"/>
<path opacity="0.2" d="M0 0L720 1024" stroke="#CDCDCD"/>
<path opacity="0.2" d="M0 0L1440 1024" stroke="#CDCDCD"/>
<path opacity="0.2" d="M0 0L1440 512" stroke="#CDCDCD"/>
<path opacity="0.2" d="M0 0L359.742 1024" stroke="#CDCDCD"/>
<path opacity="0.4" d="M0 512L1440 512" stroke="#CDCDCD"/>
<path opacity="0.4" d="M0 682.984L1440 682.984" stroke="#CDCDCD"/>
<path opacity="0.4" d="M0 768.359L1440 768.359" stroke="#CDCDCD"/>
<path opacity="0.4" d="M0 938.781L1440 938.781" stroke="#CDCDCD"/>
<path opacity="0.4" d="M720 1024L720 2.20552e-06" stroke="#CDCDCD"/>
<path opacity="0.4" d="M575.599 1024L575.599 2.20552e-06" stroke="#CDCDCD"/>
<path opacity="0.4" d="M359.742 1024L359.742 2.20552e-06" stroke="#CDCDCD"/>
<path opacity="0.4" d="M287.52 1024L287.52 2.20552e-06" stroke="#CDCDCD"/>
<path opacity="0.4" d="M239.611 1024L239.611 2.20552e-06" stroke="#CDCDCD"/>
<path opacity="0.4" d="M179.627 1024L179.627 2.20552e-06" stroke="#CDCDCD"/>
<path opacity="0.4" d="M89.6895 1024L89.6895 2.20552e-06" stroke="#CDCDCD"/>
<path opacity="0.4" d="M29.8929 1024L29.8929 2.20552e-06" stroke="#CDCDCD"/>
<path opacity="0.2" d="M0 1024L720 -4.80413e-05" stroke="#CDCDCD"/>
<path opacity="0.2" d="M0 1024L1440 -4.80413e-05" stroke="#CDCDCD"/>
<path opacity="0.2" d="M0 1024L1440 512" stroke="#CDCDCD"/>
<path opacity="0.2" d="M0 1024L359.742 -4.80413e-05" stroke="#CDCDCD"/>
<path opacity="0.4" d="M1440 512L-0.000176112 512" stroke="#CDCDCD"/>
<path opacity="0.4" d="M1440 341.016L-0.000176112 341.016" stroke="#CDCDCD"/>
<path opacity="0.4" d="M1440 255.641L-0.000176112 255.641" stroke="#CDCDCD"/>
<path opacity="0.4" d="M1440 85.2189L-0.000176112 85.2191" stroke="#CDCDCD"/>
<path opacity="0.4" d="M720 0L720 1024" stroke="#CDCDCD"/>
<path opacity="0.4" d="M864.401 0L864.401 1024" stroke="#CDCDCD"/>
<path opacity="0.4" d="M1080.26 0L1080.26 1024" stroke="#CDCDCD"/>
<path opacity="0.4" d="M1152.48 0L1152.48 1024" stroke="#CDCDCD"/>
<path opacity="0.4" d="M1200.39 0L1200.39 1024" stroke="#CDCDCD"/>
<path opacity="0.4" d="M1260.37 0L1260.37 1024" stroke="#CDCDCD"/>
<path opacity="0.4" d="M1350.31 0L1350.31 1024" stroke="#CDCDCD"/>
<path opacity="0.4" d="M1410.11 0L1410.11 1024" stroke="#CDCDCD"/>
<path opacity="0.2" d="M1440 0L720 1024" stroke="#CDCDCD"/>
<path opacity="0.2" d="M1440 0L6.4373e-05 1024" stroke="#CDCDCD"/>
<path opacity="0.2" d="M1440 0L6.4373e-05 512" stroke="#CDCDCD"/>
<path opacity="0.2" d="M1440 0L1080.26 1024" stroke="#CDCDCD"/>
<path opacity="0.4" d="M1440 512L-0.000176112 512" stroke="#CDCDCD"/>
<path opacity="0.4" d="M1440 682.984L-0.000176112 682.984" stroke="#CDCDCD"/>
<path opacity="0.4" d="M1440 768.359L-0.000176112 768.359" stroke="#CDCDCD"/>
<path opacity="0.4" d="M1440 938.781L-0.000176112 938.781" stroke="#CDCDCD"/>
<path opacity="0.4" d="M720 1024L720 2.20552e-06" stroke="#CDCDCD"/>
<path opacity="0.4" d="M864.401 1024L864.401 2.20552e-06" stroke="#CDCDCD"/>
<path opacity="0.4" d="M1080.26 1024L1080.26 2.20552e-06" stroke="#CDCDCD"/>
<path opacity="0.4" d="M1152.48 1024L1152.48 2.20552e-06" stroke="#CDCDCD"/>
<path opacity="0.4" d="M1200.39 1024L1200.39 2.20552e-06" stroke="#CDCDCD"/>
<path opacity="0.4" d="M1260.37 1024L1260.37 2.20552e-06" stroke="#CDCDCD"/>
<path opacity="0.4" d="M1350.31 1024L1350.31 2.20552e-06" stroke="#CDCDCD"/>
<path opacity="0.4" d="M1410.11 1024L1410.11 2.20552e-06" stroke="#CDCDCD"/>
<path opacity="0.2" d="M1440 1024L720 -4.80413e-05" stroke="#CDCDCD"/>
<path opacity="0.2" d="M1440 1024L6.4373e-05 -4.80413e-05" stroke="#CDCDCD"/>
<path opacity="0.2" d="M1440 1024L6.4373e-05 512" stroke="#CDCDCD"/>
<path opacity="0.2" d="M1440 1024L1080.26 -4.80413e-05" stroke="#CDCDCD"/>
</g>
<defs>
<clipPath id="clip0">
<rect width="1440" height="1024" fill="white"/>
</clipPath>
</defs>
</svg>
